<?xml version="1.0" encoding="UTF-8"?><svg width="1133" height="531" viewBox="0 0 1133 531" version="1.1" xmlns="http://www.w3.org/2000/svg" xmlns:xlink="http://www.w3.org/1999/xlink"><!--Generator: Sketch 63.1 (92452) - https://sketch.com--><title>trustpilot-wrap</title><desc>Created with Sketch.</desc><g id="trustpilot-wrap" stroke="none" stroke-width="1" fill="none" fill-rule="evenodd"><g id="Trustpilot_brandmark_gr-blk_RGB" fill-rule="nonzero"><g id="Type" transform="translate(297 98)" fill="#191919"><path d="M.7.6h114.7V22H70.3v120.3H45.5V22H.6V.6h.1Zm109.8 39.1h21.2v19.8h.4c.7-2.8 2-5.5 3.9-8.1a36 36 0 0 1 15.9-12.5c3.3-1.3 6.7-2 10.1-2l5.5.2 3.1.4v21.8a72.2 72.2 0 0 0-9.8-1 24.9 24.9 0 0 0-19.6 9 34 34 0 0 0-6 11 46.6 46.6 0 0 0-2.2 15.1v48.8h-22.6V39.7h.1Zm164 102.6h-22.2V128h-.4a30.8 30.8 0 0 1-12.4 12.4 34 34 0 0 1-16.8 4.7c-13.5 0-23.3-3.3-29.3-10s-9-16.8-9-30.3V39.7H207v62.9c0 9 1.7 15.4 5.2 19.1 3.4 3.7 8.3 5.6 14.5 5.6 4.8 0 8.7-.7 11.9-2.2a20 20 0 0 0 7.7-5.9c2-2.4 3.4-5.4 4.3-8.8.9-3.4 1.3-7.1 1.3-11.1V39.8h22.6v102.5Zm38.5-32.9c.7 6.6 3.2 11.2 7.5 13.9 4.4 2.6 9.6 4 15.7 4 2.1 0 4.5-.2 7.2-.5s5.3-1 7.6-1.9c2.4-.9 4.3-2.3 5.9-4.1a10 10 0 0 0 2.1-7 9.7 9.7 0 0 0-3.2-7.1c-2-1.9-4.5-3.3-7.6-4.5a76.3 76.3 0 0 0-10.6-2.9l-12.1-2.6c-4.2-.9-8.3-2.1-12.2-3.4a37.2 37.2 0 0 1-10.5-5.4 23.7 23.7 0 0 1-7.4-8.6 26.9 26.9 0 0 1-2.8-13c0-5.6 1.4-10.2 4.1-14a31 31 0 0 1 10.3-9.1c4.2-2.3 8.8-3.9 13.9-4.9a68 68 0 0 1 29.8.3c4.8 1.1 9.2 2.9 13.1 5.5a32.4 32.4 0 0 1 14.6 24.4h-23.6c-1.1-5.4-3.5-9.1-7.4-10.9a30.3 30.3 0 0 0-13.4-2.8 42 42 0 0 0-11.9 1.9c-1.9.7-3.5 1.8-4.9 3.2a7.7 7.7 0 0 0-2 5.5c0 2.8 1 5 2.9 6.7 1.9 1.7 4.4 3.1 7.5 4.3 3.1 1.1 6.6 2.1 10.6 2.9l12.3 2.6c4.1.9 8.1 2.1 12.1 3.4 4 1.3 7.5 3.1 10.6 5.4 3.1 2.3 5.6 5.1 7.5 8.5a26 26 0 0 1 2.9 12.7c0 6.1-1.4 11.2-4.2 15.5a33.2 33.2 0 0 1-10.8 10.3 50.8 50.8 0 0 1-14.8 5.8 74.3 74.3 0 0 1-34.1-.4 43.8 43.8 0 0 1-14.3-6.6 32.7 32.7 0 0 1-13.2-26.9H313v-.2Zm74.6-69.7h17.1V8.9h22.6v30.8h20.4v16.9h-20.4v54.8c0 2.4.1 4.4.3 6.2.2 1.7.7 3.2 1.4 4.4a6.4 6.4 0 0 0 3.3 2.7c1.5.6 3.4.9 6 .9l4.8-.1c1.6-.1 3.2-.3 4.8-.7v17.5l-7.3.8c-2.4.3-4.8.4-7.3.4-6 0-10.8-.6-14.4-1.7a18.7 18.7 0 0 1-8.5-5 17.4 17.4 0 0 1-4.2-8.2c-.7-3.3-1.2-7.1-1.3-11.3V56.8h-17.1V39.7h-.2Zm76.1 0h21.4v13.9h.4a28 28 0 0 1 13.3-12.8 43.8 43.8 0 0 1 18.5-3.9c8.1 0 15.1 1.4 21.1 4.3 6 2.8 11 6.7 15 11.7 4 5 6.9 10.8 8.9 17.4a73 73 0 0 1 .3 41.2 53.5 53.5 0 0 1-8.1 17.2 39.8 39.8 0 0 1-33.5 16.4c-3.3 0-6.6-.3-9.9-.9a43.6 43.6 0 0 1-17.9-8 31.7 31.7 0 0 1-6.5-7.2h-.4v51.2h-22.6V39.7Zm79 51.4a51 51 0 0 0-1.8-13.5c-1.2-4.4-3-8.2-5.4-11.6a25 25 0 0 0-21.2-11.2c-9.5 0-16.7 3.3-21.5 9.9a44 44 0 0 0-7.2 26.4c0 5.2.6 10 1.9 14.4 1.3 4.4 3.1 8.2 5.7 11.4a27 27 0 0 0 9 7.5c3.5 1.9 7.6 2.8 12.2 2.8a25.4 25.4 0 0 0 21.9-11.4 34 34 0 0 0 5-11.5c.9-4.3 1.4-8.7 1.4-13.2ZM582.6.6h22.6V22h-22.6V.6Zm0 39.1h22.6v102.6h-22.6V39.7ZM625.4.6H648v141.7h-22.6V.6Zm91.9 144.5c-8.2 0-15.5-1.4-21.9-4.1a48.4 48.4 0 0 1-16.3-11.2 48.8 48.8 0 0 1-10.1-17.1 66 66 0 0 1-3.5-21.8c0-7.8 1.2-15 3.5-21.6A46 46 0 0 1 695.4 41a55.9 55.9 0 0 1 21.9-4.1c8.2 0 15.5 1.4 21.9 4.1a48.4 48.4 0 0 1 16.3 11.2 48.8 48.8 0 0 1 10.1 17.1 65.2 65.2 0 0 1 3.5 21.6 66 66 0 0 1-3.5 21.8 46 46 0 0 1-26.4 28.3 55.9 55.9 0 0 1-21.9 4.1Zm0-17.9a26.2 26.2 0 0 0 22.2-11.5c2.4-3.4 4.1-7.3 5.3-11.6a53 53 0 0 0 0-26.3 34.2 34.2 0 0 0-5.3-11.6 26.2 26.2 0 0 0-22.2-11.4 26.2 26.2 0 0 0-22.2 11.4 36.2 36.2 0 0 0-5.3 11.6 53.5 53.5 0 0 0 0 26.3c1.1 4.3 2.9 8.2 5.3 11.6 2.4 3.4 5.4 6.2 9.1 8.3 3.7 2.2 8.1 3.2 13.1 3.2Zm58.4-87.5h17.1V8.9h22.6v30.8h20.4v16.9h-20.4v54.8c0 2.4.1 4.4.3 6.2.2 1.7.7 3.2 1.4 4.4a6.4 6.4 0 0 0 3.3 2.7c1.5.6 3.4.9 6 .9l4.8-.1c1.6-.1 3.2-.3 4.8-.7v17.5l-7.3.8c-2.4.3-4.8.4-7.3.4-6 0-10.8-.6-14.4-1.7a18.7 18.7 0 0 1-8.5-5 17.4 17.4 0 0 1-4.2-8.2c-.7-3.3-1.2-7.1-1.3-11.3V56.8h-17.1V39.7h-.2Z" id="Shape"/></g><g id="Star"><polygon id="Path" fill="#00B67A" points="271.3 98.6 167.7 98.6 135.7 0 103.6 98.6 0 98.5 83.9 159.5 51.8 258 135.7 197.1 219.5 258 187.5 159.5 271.3 98.6 271.3 98.6"/><polygon id="Path" fill="#005128" points="194.7 181.8 187.5 159.5 135.7 197.1"/></g></g><g id="Trustpilot_ratings_4halfstar-RGB" transform="translate(0 319)" fill-rule="nonzero"><rect id="Rectangle-path" fill="#00B67A" x="0" y="0" width="212" height="212"/><rect id="Rectangle-path" fill="#00B67A" x="230" y="0" width="212" height="212"/><rect id="Rectangle-path" fill="#00B67A" x="459" y="0" width="212" height="212"/><rect id="Rectangle-path" fill="#00B67A" x="689" y="0" width="212" height="212"/><g id="Half" transform="translate(919)"><rect id="Rectangle-path" fill="#DCDCE6" x="106" y="0" width="106" height="212"/><rect id="Rectangle-path" fill="#00B67A" x="0" y="0" width="106" height="212"/></g><path d="m106 142.8 32.2-8.2 13.4 41.4-45.6-33.2Zm74-53.5h-56.6L106 36 88.6 89.3H32l45.8 33-17.4 53.3 45.8-33 28.2-20.3 45.6-33Z" id="Shape" fill="#FFFFFF"/><path d="m336 142.8 32.2-8.2 13.4 41.4-45.6-33.2Zm74-53.5h-56.6L336 36l-17.4 53.3H262l45.8 33-17.4 53.3 45.8-33 28.2-20.3 45.6-33Z" id="Shape" fill="#FFFFFF"/><path d="m565 142.8 32.2-8.2 13.4 41.4-45.6-33.2Zm74-53.5h-56.6L565 36l-17.4 53.3H491l45.8 33-17.4 53.3 45.8-33 28.2-20.3 45.6-33Z" id="Shape" fill="#FFFFFF"/><path d="m795 142.8 32.2-8.2 13.4 41.4-45.6-33.2Zm74-53.5h-56.6L795 36l-17.4 53.3H721l45.8 33-17.4 53.3 45.8-33 28.2-20.3 45.6-33Z" id="Shape" fill="#FFFFFF"/><path d="m1025 142.8 32.2-8.2 13.4 41.4-45.6-33.2Zm74-53.5h-56.6L1025 36l-17.4 53.3H951l45.8 33-17.4 53.3 45.8-33 28.2-20.3 45.6-33Z" id="Shape" fill="#FFFFFF"/></g></g></svg>